<?xml version="1.0"?>
<svg
   viewBox="0 0 96 96"
   version="1.1"
   xmlns="http://www.w3.org/2000/svg">
  <path fill="none" stroke="#000" stroke-width="5" stroke-linecap="square" stroke-linejoin="bevel"
        d="m 11.269824,71.430379 c 0,13.980031 5.291666,14.1704 5.291666,14.1704 h 63.400554 c 0,0 4.955294,-0.38559 4.7625,-14.1704"/>
  <path stroke="none" fill="#000"
        d="m 21.088328,44.907688 q -2.629297,0 -4.960938,-0.496094 -2.306835,-0.496093 -4.34082,-1.488281 -2.0091795,-0.992187 -3.7703123,-2.480469 v 0 l 3.1501953,-3.869531 v 0 q 2.058789,1.785938 4.539258,2.678906 2.480468,0.892969 5.382617,0.892969 3.91914,0 6.077148,-1.463476 2.158008,-1.463477 2.158008,-4.092774 v -0.0248 q 0,-2.058789 -1.091406,-3.150196 Q 27.140672,30.322532 25.354734,29.801634 23.593601,29.255931 21.485203,28.908665 19.451218,28.561399 17.367625,28.09011 15.308836,27.618821 13.572508,26.626634 11.83618,25.609642 10.769578,23.724485 9.7277811,21.839329 9.7277811,18.689134 v -0.02481 q 0,-5.035351 3.3486329,-7.788672 3.348633,-2.7781246 9.450586,-2.7781246 2.902148,0 5.680273,0.9425781 2.778125,0.9177735 5.407422,2.8277345 v 0 l -2.877344,4.018359 v 0 q -2.058789,-1.53789 -4.117578,-2.282031 -2.033984,-0.744141 -4.092773,-0.744141 -3.695899,0 -5.754688,1.488282 -2.033984,1.463476 -2.033984,4.167187 v 0.02481 q 0,2.033984 1.190625,3.100586 1.190625,1.066601 3.100586,1.5875 1.934765,0.496093 4.142383,0.942578 1.984375,0.396875 3.96875,0.967382 1.984374,0.545704 3.596679,1.612305 1.637109,1.041797 2.604492,2.877344 0.992188,1.835547 0.992188,4.787304 v 0.04961 q 0,4.985742 -3.472656,7.714258 -3.472657,2.728515 -9.773047,2.728515 z"/>
  <path stroke="none" fill="#000"
        d="m 75.035888,25.113548 h 12.501563 v 6.30039 q 0,4.067969 -1.5875,7.118946 -1.562696,3.026171 -4.39043,4.71289 -2.827734,1.661914 -6.647656,1.661914 -3.844727,0 -6.72207,-1.562695 -2.877344,-1.5875 -4.464844,-4.440039 -1.5875,-2.877344 -1.5875,-6.697266 v -10.64121 q 0,-4.067969 1.562695,-7.094141 1.5875,-3.026172 4.415235,-4.6880858 2.827734,-1.6867188 6.647656,-1.6867188 3.150195,0 5.729883,1.3394531 2.604492,1.3394535 4.365625,3.7455075 1.761132,2.406055 2.381249,5.630664 v 0 h -5.481835 v 0 q -0.694532,-2.802929 -2.703711,-4.291211 -2.00918,-1.488281 -4.291211,-1.488281 -3.373438,0 -5.407422,2.356445 -2.033984,2.331641 -2.033984,6.176368 v 10.64121 q 0,3.522266 2.083593,5.655469 2.083594,2.108398 5.506641,2.108398 3.373437,0 5.407422,-2.232421 2.033984,-2.232422 2.033984,-6.225977 v -1.562695 h -7.317383 z"/>
  <path stroke="none" fill="#000"
        d="M 45.593947,77.503487 33.836525,41.437472 h 5.50664 l 8.656836,28.277343 8.656836,-28.277343 h 5.506641 L 50.406056,77.503487 Z"/>
  <path fill="none" stroke="#000" stroke-width="5" stroke-linecap="butt" stroke-linejoin="bevel" stroke-dasharray="5,5" stroke-dashoffset="0"
        d="m 47.716649,31.521908 0,25.159689"/>
</svg>
